<?xml version="1.0" encoding="utf-8"?>
<!-- Generator: Adobe Illustrator 24.3.0, SVG Export Plug-In . SVG Version: 6.00 Build 0)  -->
<svg version="1.1" id="Layer_1" xmlns="http://www.w3.org/2000/svg" xmlns:xlink="http://www.w3.org/1999/xlink" x="0px" y="0px"
	 viewBox="50 26 280 100" xml:space="preserve" height="100px" width="500px" >
<style type="text/css">
	.st0{fill:#323E48;}
	.st1{fill:#FF671D;}
	.st2{fill:none;}
	.st3{fill:none;stroke:#808285;stroke-miterlimit:10;}
	.st4{fill:none;stroke:#808285;stroke-miterlimit:10;stroke-dasharray:3.9608,3.9608;}
</style>
<g>
	<g>
		<path class="st0" d="M151.6,100.79c0,0.1-0.03,0.21-0.09,0.3c-0.17,0.27-0.52,0.35-0.79,0.18c-1.31-0.82-2.86-1.08-4.36-0.73
			c-1.5,0.34-2.78,1.25-3.6,2.56c-0.82,1.31-1.08,2.85-0.74,4.36c0.33,1.43,1.17,2.68,2.57,3.6l0,0c1.03,0.64,1.74,1.65,2.01,2.83
			c0.27,1.18,0.06,2.4-0.58,3.42c-0.64,1.03-1.65,1.74-2.83,2.01c-1.18,0.27-2.4,0.07-3.43-0.58c-0.27-0.17-0.35-0.52-0.18-0.79
			c0.17-0.27,0.52-0.35,0.79-0.18c0.77,0.48,1.68,0.64,2.56,0.43c0.88-0.2,1.64-0.74,2.12-1.5c0.48-0.77,0.63-1.68,0.43-2.56
			c-0.19-0.82-0.67-1.53-1.35-2.02l0,0c-1.57-0.98-2.81-2.61-3.22-4.41c-0.42-1.8-0.1-3.66,0.88-5.22c0.98-1.56,2.51-2.65,4.31-3.07
			c1.8-0.41,3.66-0.1,5.22,0.88C151.51,100.41,151.6,100.59,151.6,100.79L151.6,100.79z"/>
		<path class="st1" d="M150.32,100.97c0,10.84,8.79,19.63,19.63,19.63c10.84,0,30.77-11.54,30.77-19.63
			c0-7.88-19.93-19.63-30.77-19.63C159.11,81.34,150.32,90.13,150.32,100.97z"/>
		<path class="st0" d="M177.13,106.07c-0.4-0.05-0.8-0.08-1.21-0.08c-5.29,0-9.59,4.29-9.59,9.58c0,5.3,4.3,9.59,9.59,9.59
			c5.1,0,9.27-3.98,9.57-9"/>
		<path class="st1" d="M179.08,104.59c-0.37-0.05-0.76-0.07-1.14-0.07c-4.99,0-9.04,4.04-9.04,9.03c0,4.99,4.05,9.04,9.04,9.04
			c4.8,0,8.74-3.75,9.02-8.48"/>
		<path class="st0" d="M177.13,96.06c-0.4,0.05-0.8,0.08-1.21,0.08c-5.29,0-9.59-4.29-9.59-9.59c0-5.29,4.3-9.59,9.59-9.59
			c5.1,0,9.27,3.98,9.57,9"/>
		<path class="st1" d="M179.08,97.54c-0.37,0.05-0.76,0.07-1.14,0.07c-4.99,0-9.04-4.04-9.04-9.03c0-4.99,4.05-9.04,9.04-9.04
			c4.8,0,8.74,3.75,9.02,8.48"/>
		<g>
			<path class="st0" d="M192.7,104.37c0,0.01,0,0.03,0,0.04l-1.08,11.28c-0.02,0.24-0.23,0.41-0.47,0.39
				c-0.24-0.02-0.41-0.23-0.39-0.47l1.08-11.28c0.02-0.24,0.23-0.41,0.47-0.39C192.53,103.96,192.7,104.15,192.7,104.37
				L192.7,104.37z"/>
			<path class="st0" d="M195.94,115.58c0,0.2-0.14,0.38-0.35,0.42c-0.24,0.05-0.46-0.11-0.51-0.34l-2.18-11.12
				c-0.05-0.23,0.11-0.46,0.34-0.51c0.23-0.05,0.46,0.1,0.5,0.34l2.18,11.13C195.94,115.52,195.94,115.55,195.94,115.58
				L195.94,115.58z"/>
			<g>
				<path class="st0" d="M192.7,97.39c0,0.22-0.17,0.41-0.39,0.43c-0.24,0.02-0.45-0.15-0.47-0.39l-1.08-11.28
					c-0.02-0.24,0.15-0.45,0.39-0.47c0.24-0.02,0.45,0.15,0.47,0.39l1.08,11.28C192.7,97.36,192.7,97.37,192.7,97.39L192.7,97.39z"
					/>
				<path class="st0" d="M195.94,86.18c0,0.03,0,0.05-0.01,0.08l-2.18,11.12c-0.04,0.23-0.27,0.39-0.5,0.34
					c-0.24-0.04-0.39-0.28-0.34-0.51l2.18-11.12c0.04-0.24,0.27-0.39,0.51-0.34C195.8,85.8,195.94,85.98,195.94,86.18L195.94,86.18z
					"/>
			</g>
		</g>
	</g>
	<g>
		<circle class="st2" cx="183.67" cy="106.67" r="4.26"/>
		<circle class="st0" cx="185.7" cy="106.13" r="2.22"/>
	</g>
	<g>
		<circle class="st2" cx="183.67" cy="97.44" r="4.26"/>
		<circle class="st0" cx="185.7" cy="96.89" r="2.22"/>
	</g>
</g>
<g>
	<g>
		<line class="st3" x1="27.29" y1="99.24" x2="29.29" y2="99.24"/>
		<line class="st4" x1="33.25" y1="99.24" x2="126.33" y2="99.24"/>
		<line class="st3" x1="128.31" y1="99.24" x2="130.31" y2="99.24"/>
	</g>
</g>
</svg>
