<?xml version="1.0" encoding="utf-8"?>
<!-- Generator: Adobe Illustrator 24.3.0, SVG Export Plug-In . SVG Version: 6.00 Build 0)  -->
<svg version="1.1" id="Layer_1" xmlns="http://www.w3.org/2000/svg" xmlns:xlink="http://www.w3.org/1999/xlink" x="0px" y="0px"
	 viewBox="0 0 576 576" style="enable-background:new 0 0 576 576;" xml:space="preserve">
<style type="text/css">
	.st0{fill:#323E48;}
	.st1{fill:#FF671D;}
	.st2{fill:none;}
</style>
<g>
	<g>
		<path class="st0" d="M288.09,177.13c-0.49,0-1.01-0.12-1.48-0.43c-1.32-0.82-1.71-2.55-0.88-3.86c4.03-6.43,5.3-14.04,3.6-21.44
			c-1.66-7.38-6.17-13.67-12.58-17.7c-6.43-4.03-14.04-5.3-21.4-3.6c-7.05,1.6-13.13,5.78-17.68,12.62l0,0
			c-3.19,5.06-8.1,8.55-13.94,9.91c-5.8,1.32-11.8,0.33-16.86-2.86s-8.55-8.1-9.91-13.94c-1.34-5.8-0.33-11.8,2.86-16.86
			c0.82-1.32,2.55-1.75,3.86-0.88c1.32,0.82,1.71,2.55,0.88,3.91c-2.36,3.76-3.1,8.26-2.14,12.58c1.01,4.36,3.64,8.04,7.4,10.4
			c3.8,2.36,8.26,3.1,12.58,2.14c4.07-0.95,7.54-3.27,9.91-6.66l0,0c4.81-7.71,12.83-13.83,21.71-15.87
			c8.86-2.03,17.97-0.49,25.67,4.34c7.71,4.81,13.05,12.35,15.09,21.21c2.03,8.86,0.49,17.97-4.34,25.67
			C289.94,176.64,289.06,177.13,288.09,177.13L288.09,177.13z"/>
		<path class="st1" d="M287.19,170.8c-53.3,0-96.53,43.23-96.53,96.53c0,53.26,56.71,151.28,96.53,151.28
			c38.75,0,96.53-97.99,96.53-151.28S340.48,170.8,287.19,170.8z"/>
		<path class="st0" d="M262.11,302.64c0.27-1.93,0.37-3.93,0.37-5.96c0-26.02-21.07-47.17-47.11-47.17
			c-26.02,0-47.17,21.15-47.17,47.17c0,25.04,19.57,45.57,44.25,47.07"/>
		<path class="st1" d="M269.34,312.22c0.23-1.83,0.37-3.7,0.37-5.61c0-24.52-19.9-44.44-44.42-44.44s-44.44,19.9-44.44,44.44
			c0,23.64,18.42,42.98,41.69,44.36"/>
		<path class="st0" d="M311.34,302.64c-0.27-1.93-0.39-3.93-0.39-5.96c0-26.02,21.11-47.17,47.13-47.17
			c26.02,0,47.13,21.15,47.13,47.17c0,25.04-19.57,45.57-44.21,47.07"/>
		<path class="st1" d="M304.06,312.22c-0.23-1.83-0.37-3.7-0.37-5.61c0-24.52,19.9-44.44,44.42-44.44
			c24.52,0,44.44,19.9,44.44,44.44c0,23.64-18.46,42.98-41.69,44.36"/>
		<g>
			<path class="st0" d="M270.45,379.19c-0.06,0-0.12,0-0.21,0l-55.46-5.28c-1.17-0.1-2.03-1.15-1.89-2.32
				c0.1-1.17,1.15-2.03,2.32-1.89l55.46,5.3c1.17,0.1,2.03,1.15,1.89,2.32C272.47,378.36,271.54,379.19,270.45,379.19L270.45,379.19
				z"/>
			<path class="st0" d="M215.37,395.07c-0.99,0-1.87-0.68-2.06-1.71c-0.23-1.15,0.53-2.3,1.66-2.49l54.68-10.71
				c1.15-0.23,2.3,0.53,2.49,1.66c0.23,1.15-0.53,2.26-1.66,2.49l-54.72,10.71C215.65,395.07,215.49,395.07,215.37,395.07
				L215.37,395.07z"/>
			<g>
				<path class="st0" d="M304.78,379.19c-1.09,0-1.99-0.82-2.1-1.89c-0.1-1.17,0.76-2.2,1.89-2.32l55.46-5.3
					c1.17-0.1,2.2,0.76,2.32,1.89c0.1,1.17-0.76,2.22-1.93,2.32l-55.46,5.28C304.95,379.19,304.88,379.19,304.78,379.19
					L304.78,379.19z"/>
				<path class="st0" d="M359.89,395.07c-0.12,0-0.27,0-0.39-0.04l-54.68-10.71c-1.15-0.23-1.89-1.34-1.66-2.49
					c0.23-1.15,1.34-1.89,2.49-1.66l54.72,10.71c1.15,0.23,1.89,1.34,1.66,2.49C361.78,394.38,360.88,395.07,359.89,395.07
					L359.89,395.07z"/>
			</g>
		</g>
	</g>
	<g>
		<circle class="st2" cx="259.15" cy="334.77" r="20.9"/>
		<circle class="st0" cx="261.8" cy="344.71" r="10.96"/>
	</g>
	<g>
		<circle class="st2" cx="304.55" cy="334.77" r="20.9"/>
		<circle class="st0" cx="307.21" cy="344.71" r="10.96"/>
	</g>
</g>
</svg>
