<?xml version="1.0" encoding="utf-8"?>
<!-- Generator: Adobe Illustrator 24.3.0, SVG Export Plug-In . SVG Version: 6.00 Build 0)  -->
<svg version="1.1" id="Layer_1" xmlns="http://www.w3.org/2000/svg" xmlns:xlink="http://www.w3.org/1999/xlink" x="0px" y="0px"
	 viewBox="0 0 612 792" style="enable-background:new 0 0 612 792;" >
<style type="text/css">
	.st0{fill:#323E48;}
	.st1{fill:#FF671D;}
	.st2{fill:none;}
	.st3{font-family:'NexaLight';}
	.st4{font-size:5.0191px;}
	.st5{fill:#1B6A7A;}
	.st6{fill:#F8EB30;}
	.st7{fill:#FCFADD;}
</style>
<g>
	<g>
		<path class="st0" d="M310.45,504.85c-0.21,0-0.43-0.06-0.62-0.18c-0.55-0.34-0.72-1.08-0.37-1.63c1.7-2.7,2.24-5.9,1.52-9.02
			c-0.7-3.1-2.59-5.75-5.3-7.45s-5.9-2.24-9.01-1.52c-2.97,0.68-5.53,2.43-7.44,5.31l0,0c-1.34,2.12-3.41,3.6-5.86,4.17
			c-2.44,0.55-4.97,0.14-7.09-1.2c-2.12-1.34-3.6-3.41-4.17-5.86c-0.57-2.44-0.14-4.97,1.2-7.09c0.34-0.55,1.08-0.73,1.63-0.37
			c0.55,0.34,0.72,1.08,0.37,1.64c-0.99,1.59-1.31,3.48-0.9,5.3c0.43,1.83,1.53,3.38,3.12,4.37c1.6,0.99,3.48,1.31,5.3,0.9
			c1.71-0.4,3.17-1.38,4.17-2.8l0,0c2.03-3.24,5.39-5.82,9.13-6.68c3.73-0.86,7.56-0.21,10.8,1.82c3.24,2.03,5.49,5.2,6.35,8.93
			c0.86,3.73,0.21,7.56-1.82,10.8C311.22,504.64,310.85,504.85,310.45,504.85L310.45,504.85z"/>
		<path class="st1" d="M310.06,502.19c-22.43,0-40.63,18.2-40.63,40.63c0,22.42,23.87,63.67,40.63,63.67
			c16.31,0,40.63-41.24,40.63-63.67C350.69,520.38,332.49,502.19,310.06,502.19z"/>
		<path class="st0" d="M299.51,557.67c0.11-0.81,0.15-1.66,0.15-2.51c0-10.95-8.87-19.85-19.83-19.85s-19.85,8.9-19.85,19.85
			c0,10.54,8.24,19.18,18.63,19.81"/>
		<path class="st1" d="M302.56,561.7c0.1-0.77,0.15-1.56,0.15-2.36c0-10.32-8.37-18.71-18.69-18.71c-10.32,0-18.71,8.37-18.71,18.71
			c0,9.95,7.75,18.09,17.55,18.67"/>
		<path class="st0" d="M320.23,557.67c-0.11-0.81-0.17-1.66-0.17-2.51c0-10.95,8.88-19.85,19.84-19.85s19.84,8.9,19.84,19.85
			c0,10.54-8.24,19.18-18.61,19.81"/>
		<path class="st1" d="M317.17,561.7c-0.1-0.77-0.15-1.56-0.15-2.36c0-10.32,8.37-18.71,18.69-18.71s18.71,8.37,18.71,18.71
			c0,9.95-7.77,18.09-17.55,18.67"/>
		<g>
			<path class="st0" d="M303.02,589.89c-0.03,0-0.06,0-0.08,0l-23.34-2.22c-0.5-0.04-0.86-0.48-0.8-0.98
				c0.04-0.5,0.48-0.86,0.98-0.8l23.34,2.24c0.5,0.04,0.86,0.48,0.8,0.98C303.87,589.54,303.48,589.89,303.02,589.89L303.02,589.89z
				"/>
			<path class="st0" d="M279.83,596.58c-0.41,0-0.79-0.29-0.87-0.72c-0.1-0.48,0.22-0.97,0.7-1.05l23.01-4.51
				c0.48-0.1,0.97,0.22,1.05,0.7c0.1,0.48-0.22,0.95-0.7,1.05L280,596.57C279.96,596.58,279.89,596.58,279.83,596.58L279.83,596.58z
				"/>
			<g>
				<path class="st0" d="M317.47,589.89c-0.46,0-0.84-0.34-0.88-0.8c-0.04-0.5,0.32-0.92,0.8-0.98l23.34-2.23
					c0.5-0.04,0.92,0.32,0.98,0.8c0.04,0.5-0.32,0.94-0.81,0.98l-23.34,2.22C317.54,589.89,317.51,589.89,317.47,589.89
					L317.47,589.89z"/>
				<path class="st0" d="M340.66,596.58c-0.06,0-0.11,0-0.17-0.01l-23.01-4.51c-0.48-0.1-0.8-0.57-0.7-1.05
					c0.1-0.48,0.57-0.8,1.05-0.7l23.03,4.51c0.48,0.1,0.8,0.57,0.7,1.05C341.46,596.29,341.08,596.58,340.66,596.58L340.66,596.58z"
					/>
			</g>
		</g>
	</g>
	<g>
		<circle class="st2" cx="298.26" cy="571.2" r="8.8"/>
		<circle class="st0" cx="299.38" cy="575.39" r="4.61"/>
	</g>
	<g>
		<circle class="st2" cx="317.37" cy="571.2" r="8.8"/>
		<circle class="st0" cx="318.49" cy="575.39" r="4.61"/>
	</g>
</g>
<g>
	<g>
		<path class="st0" d="M231.54,625.97h8.09v-5.3h-8.67c-1.86,0-3.14,0.36-3.92,1.09c-0.79,0.75-1.17,2.01-1.17,3.86v10.62
			c0,2.27,0.95,3.79,2.81,4.52c0.58,0.23,1.14,0.35,1.67,0.35h9.28v-5.3h-7.82c-0.45,0-0.53-0.15-0.57-0.21
			c0-0.01-0.1-0.18-0.1-0.91l-0.01-8.35C231.19,626.1,231.31,625.99,231.54,625.97z"/>
		<path class="st0" d="M242.39,636.52v-11.26c0-0.23,0.04-0.55,0.12-0.94c0.49-2.44,2.17-3.66,5.03-3.66h6.98
			c1.53,0,2.77,0.39,3.72,1.17c0.95,0.78,1.42,1.92,1.42,3.43v11.26c0,1.51-0.48,2.65-1.42,3.43c-0.95,0.78-2.19,1.17-3.72,1.17
			h-6.98c-3.04,0-4.72-1.22-5.03-3.67L242.39,636.52z M248.74,635.89h4.58c0.28,0,0.55-0.16,0.79-0.49
			c0.25-0.32,0.37-0.63,0.37-0.95v-7.19c0-0.29-0.12-0.59-0.37-0.91c-0.25-0.32-0.51-0.48-0.79-0.48h-4.58
			c-0.31,0-0.58,0.15-0.81,0.46c-0.23,0.31-0.35,0.62-0.35,0.93v7.23c0,0.31,0.11,0.62,0.35,0.93
			C248.16,635.74,248.43,635.89,248.74,635.89z"/>
		<path class="st0" d="M262.69,635.97v-10.25c0-0.11,0-0.25,0-0.43v-0.39c0.29-2.29,1.49-3.66,3.6-4.13
			c0.37-0.08,0.7-0.12,1.01-0.12h7.43v-7.64h5.19v22.6c0,1.69-0.44,3.03-1.32,4.01c-0.87,0.99-2.16,1.49-3.87,1.49h-7.34
			c-1.82,0-3.18-0.81-4.08-2.42C262.9,637.97,262.69,637.06,262.69,635.97z M274.73,627.08c-0.16-0.8-0.61-1.2-1.37-1.2h-3.97
			c-0.81,0-1.3,0.4-1.48,1.2c-0.02,0.05-0.03,0.13-0.03,0.23v7.39c0,0.62,0.32,1,0.97,1.16c0.05,0.03,0.16,0.04,0.31,0.04h4.25
			c0.15,0,0.26-0.01,0.31-0.04c0.68-0.1,1.01-0.37,1.01-0.81V627.08z"/>
		<path class="st0" d="M282.62,615.43c-0.05-0.94,0.24-1.73,0.88-2.38c0.64-0.65,1.42-0.97,2.36-0.97c0.89,0,1.64,0.32,2.28,0.95
			c0.64,0.64,0.95,1.4,0.95,2.28c0,0.91-0.32,1.68-0.95,2.3c-0.64,0.62-1.41,0.93-2.32,0.93c-0.88,0-1.62-0.3-2.22-0.89
			C283,617.06,282.67,616.32,282.62,615.43z M283.28,641.12v-20.46h5.18v20.46H283.28z"/>
		<path class="st0" d="M291.8,641.12v-15.59c0-0.26,0.03-0.57,0.08-0.93c0.39-2.63,1.99-3.94,4.79-3.94h7.21
			c2.8,0,4.4,1.31,4.8,3.94c0.05,0.36,0.08,0.67,0.08,0.93v15.59h-5.18v-13.8c0-0.13-0.01-0.23-0.04-0.31
			c-0.1-0.75-0.66-1.13-1.68-1.13h-3.19c-1.02,0-1.57,0.37-1.68,1.13v14.11H291.8z"/>
		<path class="st0" d="M312.15,648.75v-5.23h10.65c0.8-0.13,1.25-0.55,1.35-1.26v-1.15h-6.74c-1.48,0-2.72-0.43-3.74-1.27
			c-1.01-0.84-1.52-1.99-1.52-3.45v-10.13c0-1.92,0.41-3.34,1.23-4.25c0.82-0.91,2.18-1.37,4.07-1.37h6.89
			c0.42,0,0.73,0.01,0.94,0.04c1.51,0.18,2.53,0.56,3.08,1.13c0.65,0.7,0.97,1.76,0.97,3.16v18.54c0,0.41-0.03,0.71-0.08,0.89
			c-0.52,2.89-2.24,4.33-5.16,4.33c-0.02,0.02-1.05,0.03-3.06,0.03C319.05,648.79,316.08,648.77,312.15,648.75z M317.38,634.77
			c0.13,0.46,0.42,0.8,0.85,1c0.29,0.08,0.45,0.11,0.51,0.11h4.36c0.7-0.15,1.05-0.6,1.05-1.35v-7.7c-0.05-0.26-0.22-0.48-0.5-0.68
			c-0.29-0.19-0.57-0.29-0.86-0.29h-4.13c-0.7,0-1.13,0.36-1.29,1.08c-0.03,0.05-0.04,0.14-0.04,0.27v7.31
			C317.34,634.64,317.35,634.72,317.38,634.77z"/>
		<g>
			<path class="st0" d="M348.71,620.65l-7.15,8.58c-0.12,0.16-0.27,0.3-0.45,0.4c-0.16,0.08-0.35,0.13-0.53,0.13h-5.5v-9.11h-1.77
				v20.31h1.77v-9.11h5.5c0.18,0,0.36,0.04,0.5,0.11c0.2,0.12,0.37,0.26,0.49,0.4l7.14,8.6h2.5l-8.46-10.16l8.46-10.15H348.71z"/>
			<rect x="352.9" y="620.65" class="st0" width="1.77" height="20.31"/>
			<path class="st0" d="M372.09,620.65h-14.12v20.31h14.12c1.83,0,3.32-1.93,3.32-4.31v-11.71
				C375.41,622.57,373.93,620.65,372.09,620.65z M359.74,622.71h12.35c0.85,0,1.57,1.03,1.57,2.23v11.71c0,1.22-0.7,2.21-1.57,2.21
				h-12.35V622.71z"/>
			<path class="st0" d="M394.45,623.24c0.08-0.15,0.12-0.32,0.12-0.54v-0.88c0-0.3-0.1-0.58-0.27-0.78c-0.17-0.25-0.44-0.4-0.72-0.4
				h-16.45v2.09h15.2l-14.82,15.2c-0.12,0.13-0.21,0.26-0.29,0.44c-0.05,0.15-0.08,0.34-0.08,0.52v0.88c0,0.22,0.04,0.54,0.26,0.84
				c0.2,0.22,0.46,0.35,0.72,0.35h16.46v-2.1h-15.22l14.79-15.18C394.28,623.58,394.4,623.42,394.45,623.24z"/>
		</g>
		<g>
			<polygon class="st1" points="206.07,631.8 206.81,632.61 216.95,644.82 220.51,644.82 208.49,630.39 220.51,615.95 
				216.96,615.95 206.79,628.14 206.07,628.94 			"/>
		</g>
		<g>
			<polygon class="st1" points="414.14,631.8 413.4,632.61 403.26,644.82 399.7,644.82 411.72,630.39 399.7,615.95 403.26,615.95 
				413.42,628.14 414.14,628.94 			"/>
		</g>
	</g>
	<g>
		<path class="st1" d="M226.82,658.46h1.66l-0.17,1.31l0.03,0.03c0.66-1.07,1.74-1.6,3.26-1.6c2.09,0,3.14,1.07,3.14,3.23
			l-0.01,0.79h-1.64l0.04-0.29c0.02-0.3,0.04-0.5,0.04-0.61c0-1.16-0.63-1.75-1.9-1.75c-1.85,0-2.78,1.14-2.78,3.43v6.81h-1.66
			V658.46z"/>
		<path class="st1" d="M244.62,666.38h1.7l0.01,0.42c0,1.18-0.36,2-1.08,2.48c-0.72,0.47-1.97,0.7-3.77,0.7
			c-2.09,0-3.46-0.38-4.12-1.14c-0.65-0.76-0.98-2.37-0.98-4.82c0-2.26,0.33-3.79,0.99-4.56c0.66-0.78,1.94-1.16,3.86-1.16
			c2.09,0,3.46,0.34,4.11,1.01c0.65,0.67,0.97,2.09,0.97,4.26v0.89h-8.17c0,1.79,0.19,2.93,0.58,3.42c0.38,0.49,1.28,0.74,2.69,0.74
			c1.34,0,2.21-0.12,2.61-0.35c0.4-0.23,0.6-0.74,0.6-1.52V666.38z M244.62,663.15l-0.01-0.54c0-1.23-0.2-2.03-0.6-2.39
			c-0.4-0.37-1.27-0.56-2.61-0.56c-1.35,0-2.22,0.22-2.62,0.65c-0.4,0.43-0.6,1.38-0.6,2.83H244.62z"/>
		<path class="st1" d="M251.05,661.64h-1.65c0-1.32,0.3-2.21,0.9-2.67c0.6-0.45,1.77-0.68,3.51-0.68c1.89,0,3.17,0.28,3.84,0.84
			c0.67,0.56,1,1.62,1,3.19v7.5h-1.66l0.13-1.22l-0.04-0.01c-0.63,0.94-1.92,1.4-3.86,1.4c-2.87,0-4.3-1.15-4.3-3.46
			c0-1.37,0.32-2.32,0.96-2.84c0.64-0.52,1.8-0.78,3.48-0.78c2,0,3.19,0.39,3.59,1.18l0.04-0.01v-1.38c0-1.3-0.18-2.14-0.53-2.52
			c-0.36-0.38-1.14-0.58-2.34-0.58c-2.04,0-3.06,0.58-3.06,1.72C251.03,661.37,251.04,661.48,251.05,661.64z M253.72,664.2
			c-1.28,0-2.1,0.14-2.49,0.41c-0.38,0.27-0.58,0.85-0.58,1.74c0,0.92,0.19,1.53,0.57,1.82c0.38,0.3,1.15,0.44,2.32,0.44
			c2.35,0,3.52-0.71,3.52-2.14c0-0.9-0.23-1.49-0.68-1.8C255.92,664.35,255.03,664.2,253.72,664.2z"/>
		<path class="st1" d="M271.58,653.6v16.22h-1.66l0.08-1.47l-0.05-0.01c-0.52,1.1-1.74,1.65-3.65,1.65c-1.74,0-2.93-0.42-3.57-1.27
			c-0.64-0.85-0.96-2.43-0.96-4.74c0-2.13,0.32-3.61,0.96-4.44c0.64-0.83,1.79-1.24,3.44-1.24c2.07,0,3.3,0.53,3.7,1.6l0.04-0.03
			v-6.27H271.58z M266.57,659.67c-1.23,0-2.04,0.28-2.45,0.85c-0.4,0.57-0.6,1.71-0.6,3.44c0,1.9,0.2,3.15,0.6,3.75
			c0.4,0.6,1.23,0.9,2.49,0.9c1.37,0,2.26-0.3,2.68-0.9c0.41-0.6,0.62-1.9,0.62-3.9c0-1.63-0.23-2.72-0.68-3.29
			C268.76,659.96,267.88,659.67,266.57,659.67z"/>
		<path class="st1" d="M282.93,658.46l-3.22,12.01c-0.45,1.7-0.95,2.86-1.5,3.49c-0.55,0.63-1.34,0.95-2.36,0.95
			c-0.21,0-0.48-0.03-0.8-0.08v-1.38c0.23,0.05,0.42,0.07,0.58,0.08c0.9,0.05,1.56-0.67,2-2.17l0.32-1.12
			c0.01-0.04,0.04-0.18,0.11-0.43h-0.63l-4.11-11.36h1.77l1.75,5.06l0.88,2.52l0.43,1.27l0.44,1.26h0.05l0.31-1.26l0.3-1.27
			l0.64-2.52l1.28-5.06H282.93z"/>
		<path class="st1" d="M286.59,667.63v2.35c0,1.48-0.54,2.22-1.62,2.22c-0.1,0-0.25-0.01-0.45-0.02v-0.9
			c0.68-0.04,1.02-0.39,1.02-1.04l-0.01-0.42h-0.77v-2.18H286.59z"/>
		<path class="st1" d="M305.13,661.43h-1.67c0-0.79-0.16-1.28-0.48-1.47c-0.32-0.19-1.15-0.29-2.48-0.29c-1.23,0-2.02,0.1-2.35,0.3
			c-0.33,0.2-0.5,0.69-0.5,1.46c0,1.17,0.56,1.77,1.67,1.83l1.34,0.07l1.7,0.08c2.06,0.1,3.09,1.18,3.09,3.23
			c0,1.28-0.34,2.15-1.02,2.63c-0.68,0.47-1.93,0.71-3.74,0.71c-1.86,0-3.14-0.22-3.84-0.67c-0.7-0.45-1.05-1.28-1.05-2.48
			l0.01-0.62h1.72l0.01,0.53c0,0.74,0.19,1.24,0.57,1.49c0.38,0.25,1.13,0.38,2.24,0.38c1.37,0,2.27-0.13,2.7-0.39
			c0.43-0.26,0.65-0.81,0.65-1.64c0-1.2-0.54-1.79-1.63-1.79c-2.53,0-4.19-0.21-4.98-0.64c-0.8-0.43-1.19-1.31-1.19-2.66
			c0-1.28,0.32-2.13,0.95-2.55c0.63-0.43,1.88-0.64,3.76-0.64c3.01,0,4.52,0.91,4.52,2.72V661.43z"/>
		<path class="st1" d="M316.12,666.38h1.7l0.01,0.42c0,1.18-0.36,2-1.08,2.48c-0.71,0.47-1.98,0.7-3.77,0.7
			c-2.09,0-3.46-0.38-4.12-1.14c-0.65-0.76-0.98-2.37-0.98-4.82c0-2.26,0.33-3.79,0.98-4.56c0.66-0.78,1.95-1.16,3.86-1.16
			c2.09,0,3.46,0.34,4.11,1.01c0.65,0.67,0.98,2.09,0.98,4.26v0.89h-8.17c0,1.79,0.19,2.93,0.57,3.42c0.38,0.49,1.28,0.74,2.69,0.74
			c1.34,0,2.21-0.12,2.61-0.35c0.4-0.23,0.6-0.74,0.6-1.52V666.38z M316.12,663.15l-0.01-0.54c0-1.23-0.2-2.03-0.61-2.39
			c-0.4-0.37-1.28-0.56-2.62-0.56c-1.35,0-2.22,0.22-2.62,0.65c-0.4,0.43-0.6,1.38-0.6,2.83H316.12z"/>
		<path class="st1" d="M326.83,658.46v1.38h-4.37v6.95c0,1.21,0.54,1.82,1.62,1.82c1.07,0,1.6-0.54,1.6-1.63l0.01-0.56l0.02-0.63
			h1.55l0.01,0.84c0,2.23-1.06,3.35-3.19,3.35c-2.19,0-3.29-0.93-3.29-2.79v-0.4v-6.95h-1.57v-1.38h1.57v-2.73h1.66v2.73H326.83z"/>
		<path class="st1" d="M331,667.63v2.35c0,1.48-0.54,2.22-1.61,2.22c-0.1,0-0.26-0.01-0.45-0.02v-0.9c0.68-0.04,1.02-0.39,1.02-1.04
			l-0.01-0.42h-0.77v-2.18H331z"/>
		<path class="st1" d="M348.55,665.72h1.66l0.01,0.62c0,2.43-1.59,3.65-4.78,3.65c-2.04,0-3.39-0.38-4.05-1.15
			c-0.66-0.77-0.98-2.35-0.98-4.75c0-2.25,0.33-3.78,1-4.58c0.67-0.8,1.94-1.2,3.82-1.2c1.84,0,3.1,0.27,3.78,0.81
			c0.68,0.54,1.01,1.56,1.01,3.06h-1.66v-0.3c0-0.88-0.22-1.47-0.65-1.76c-0.43-0.29-1.3-0.44-2.6-0.44c-1.25,0-2.06,0.28-2.41,0.83
			c-0.36,0.56-0.53,1.8-0.53,3.73c0,1.89,0.2,3.09,0.61,3.6c0.41,0.51,1.36,0.77,2.86,0.77c1.27,0,2.07-0.17,2.41-0.5
			C348.37,667.77,348.55,666.97,348.55,665.72z"/>
		<path class="st1" d="M357.59,658.29c2.1,0,3.46,0.36,4.09,1.09c0.63,0.73,0.94,2.31,0.94,4.75c0,2.44-0.31,4.03-0.94,4.75
			c-0.62,0.73-1.99,1.09-4.09,1.09c-2.09,0-3.45-0.36-4.08-1.09c-0.62-0.73-0.93-2.31-0.93-4.75c0-2.44,0.31-4.02,0.93-4.75
			C354.15,658.66,355.5,658.29,357.59,658.29z M357.59,659.67c-1.47,0-2.39,0.24-2.74,0.72c-0.36,0.48-0.53,1.73-0.53,3.75
			c0,2.02,0.17,3.27,0.53,3.75c0.35,0.48,1.27,0.72,2.74,0.72c1.48,0,2.4-0.24,2.75-0.72c0.35-0.48,0.53-1.73,0.53-3.75
			c0-2.02-0.18-3.27-0.53-3.75C360,659.91,359.08,659.67,357.59,659.67z"/>
		<path class="st1" d="M375.07,653.6v16.22h-1.66l0.08-1.47l-0.05-0.01c-0.52,1.1-1.74,1.65-3.65,1.65c-1.74,0-2.93-0.42-3.57-1.27
			c-0.64-0.85-0.96-2.43-0.96-4.74c0-2.13,0.32-3.61,0.96-4.44c0.64-0.83,1.79-1.24,3.45-1.24c2.07,0,3.3,0.53,3.7,1.6l0.04-0.03
			v-6.27H375.07z M370.07,659.67c-1.23,0-2.04,0.28-2.44,0.85c-0.41,0.57-0.61,1.71-0.61,3.44c0,1.9,0.2,3.15,0.6,3.75
			c0.4,0.6,1.23,0.9,2.49,0.9c1.37,0,2.26-0.3,2.67-0.9c0.41-0.6,0.62-1.9,0.62-3.9c0-1.63-0.23-2.72-0.68-3.29
			C372.26,659.96,371.38,659.67,370.07,659.67z"/>
		<path class="st1" d="M386.26,666.38h1.7l0.01,0.42c0,1.18-0.36,2-1.07,2.48c-0.72,0.47-1.97,0.7-3.77,0.7
			c-2.09,0-3.46-0.38-4.12-1.14c-0.65-0.76-0.98-2.37-0.98-4.82c0-2.26,0.33-3.79,0.99-4.56c0.66-0.78,1.95-1.16,3.86-1.16
			c2.09,0,3.46,0.34,4.11,1.01c0.65,0.67,0.97,2.09,0.97,4.26v0.89h-8.17c0,1.79,0.19,2.93,0.58,3.42c0.38,0.49,1.28,0.74,2.69,0.74
			c1.35,0,2.21-0.12,2.61-0.35c0.4-0.23,0.6-0.74,0.6-1.52V666.38z M386.26,663.15l-0.01-0.54c0-1.23-0.2-2.03-0.61-2.39
			c-0.4-0.37-1.27-0.56-2.61-0.56c-1.35,0-2.22,0.22-2.62,0.65c-0.4,0.43-0.6,1.38-0.6,2.83H386.26z"/>
		<path class="st1" d="M393.39,653.6l-0.24,11.74h-1.55l-0.21-11.74H393.39z M393.32,667.63v2.18h-1.83v-2.18H393.32z"/>
	</g>
</g>
</svg>
