<svg id="Layer_7" data-name="Layer 7" xmlns="http://www.w3.org/2000/svg" xmlns:xlink="http://www.w3.org/1999/xlink" viewBox="0 0 768 1024"><defs><style>.cls-1,.cls-6{fill:#646565;}.cls-2{fill:#fdd400;}.cls-3{fill:url(#radial-gradient);}.cls-4{fill:#323e48;}.cls-5{fill:#ff671d;}.cls-6{font-size:187.91px;font-family:NexaBold, Nexa Bold;letter-spacing:0.03em;}</style><radialGradient id="radial-gradient" cx="383.35" cy="601.29" r="92.09" gradientUnits="userSpaceOnUse"><stop offset="0" stop-color="#fff"/><stop offset="0.13" stop-color="#fffefb"/><stop offset="0.26" stop-color="#fffcf0"/><stop offset="0.38" stop-color="#fff9dc"/><stop offset="0.51" stop-color="#fff5c1"/><stop offset="0.63" stop-color="#feef9e"/><stop offset="0.75" stop-color="#fee773"/><stop offset="0.87" stop-color="#fddf40"/><stop offset="0.99" stop-color="#fdd506"/><stop offset="1" stop-color="#fdd400"/></radialGradient></defs><polyline class="cls-1" points="199.96 474.42 199.96 728.15 567.43 728.15 567.43 474.42 383.09 289.44"/><path class="cls-2" d="M486.36,559.79a103.28,103.28,0,0,0-206.55,0c0,5.52,1.28,169,1.28,169H487.58S486.36,565.31,486.36,559.79Z"/><circle class="cls-3" cx="383.35" cy="601.29" r="92.09"/><path class="cls-4" d="M387.1,667l.07-.06,19.95-14.14c.42-.3.92,0,1.12.61a1.6,1.6,0,0,1-.41,1.69l-19.95,14.14c-.42.3-.92,0-1.12-.61a1.67,1.67,0,0,1,.34-1.63Z"/><path class="cls-4" d="M402.65,642.09a.65.65,0,0,1,1.05.25,1.74,1.74,0,0,1-.07,1.79l-16.46,22.14a.67.67,0,0,1-1.19-.11,1.74,1.74,0,0,1,.07-1.78l16.47-22.15.13-.14Z"/><path class="cls-4" d="M379.07,667,379,667l-19.95-14.14c-.42-.3-.92,0-1.12.61a1.6,1.6,0,0,0,.41,1.69l20,14.14c.42.3.92,0,1.12-.61a1.67,1.67,0,0,0-.34-1.63Z"/><path class="cls-4" d="M363.52,642.09a.65.65,0,0,0-1,.25,1.74,1.74,0,0,0,.07,1.79L379,666.27a.67.67,0,0,0,1.19-.11,1.72,1.72,0,0,0-.07-1.78l-16.47-22.15-.13-.14Z"/><path class="cls-5" d="M383.35,779.9c38.89,0,70.46-21.34,70.46-47.64s-41.4-74.64-70.46-74.64c-28.27,0-70.46,48.35-70.46,74.64S344.45,779.9,383.35,779.9Z"/><path class="cls-4" d="M365.73,687.15a33,33,0,0,0,.28-4.35,34.41,34.41,0,1,0-36.52,34.36"/><path class="cls-5" d="M371,694.15a32.43,32.43,0,1,0-34.16,28.28"/><path class="cls-4" d="M401.66,687.15a34.8,34.8,0,0,1-.28-4.35,34.41,34.41,0,1,1,36.53,34.36"/><path class="cls-5" d="M396.37,694.15a32.43,32.43,0,1,1,34.17,28.28"/><path class="cls-4" d="M382.7,802.6a2.06,2.06,0,0,1,1.77-3.13,20.71,20.71,0,1,0,.39-41.41h0a16.29,16.29,0,1,1,.31-32.58,2.06,2.06,0,0,1-.05,4.11,12.18,12.18,0,0,0-.88,24.33h0a26.18,26.18,0,0,1,18.15,7.44,24.83,24.83,0,0,1-18,42.22,2.07,2.07,0,0,1-1.73-1Z"/><text class="cls-6" transform="translate(317.46 621.55)">X</text></svg>