<?xml version="1.0" encoding="utf-8"?>
<svg version="1.1" id="Layer_8" x="0px" y="0px" viewBox="0 0 768 1024" style="enable-background:new 0 0 768 1024;" xmlns="http://www.w3.org/2000/svg">
  <style type="text/css">
	.st0{fill:#646565;}
</style>
  <path class="st0" d="M 353.905 499.345 C 345.006 499.345 336.917 505.017 332.872 513.12 L 268.964 651.693 L 119.305 677.625 C 110.407 679.246 103.125 685.729 100.699 693.833 C 100.699 695.453 99.89 696.264 99.89 697.884 C 99.081 705.178 101.508 712.471 107.17 718.144 L 218.808 821.871 L 196.965 972.599 C 196.965 972.599 196.965 972.599 196.965 973.41 C 195.348 986.376 204.247 997.721 217.19 999.342 C 222.043 1000.152 226.897 998.532 231.751 996.101 L 364.422 921.546 L 501.136 988.807 C 512.462 994.479 527.023 990.427 532.687 978.272 C 534.304 975.841 535.113 973.41 535.113 970.169 C 535.113 967.738 535.113 965.306 535.113 962.875 L 505.182 812.957 L 611.156 703.557 C 614.392 699.505 616.819 694.643 617.628 689.781 C 618.436 686.539 617.628 682.487 616.819 679.246 C 613.583 671.142 606.302 664.659 597.404 663.849 L 445.318 646.021 L 374.129 510.689 C 370.893 504.206 362.804 499.345 353.905 499.345 Z" style=""/>
</svg>