<?xml version="1.0" encoding="utf-8"?>
<svg version="1.1" id="Layer_8" x="0px" y="0px" viewBox="0 0 768 1024" style="enable-background:new 0 0 768 1024;" xmlns="http://www.w3.org/2000/svg">
  <style type="text/css">
	.st0{fill:#646565;}
</style>
  <path class="st0" d="M 656.603 591.708 L 611.556 591.708 L 611.556 549.418 C 611.556 539.939 603.513 531.919 593.055 530.462 C 560.076 526.816 527.094 527.544 494.919 533.378 C 436.196 542.855 389.541 566.917 357.365 602.646 C 325.188 566.19 278.533 542.855 219.812 533.378 C 187.636 528.273 154.656 526.816 121.673 530.462 C 111.218 531.919 103.173 539.939 103.173 549.418 L 103.173 591.708 L 58.126 591.708 C 46.062 591.708 36.407 600.459 36.407 611.396 L 36.407 978.154 C 36.407 989.09 46.062 997.84 57.322 997.84 C 59.735 997.84 62.148 997.84 64.562 997.11 C 66.17 996.383 227.052 946.802 346.908 996.383 C 352.539 998.569 358.973 998.569 364.604 996.383 C 484.461 946.802 645.342 996.383 646.951 997.11 C 649.363 997.84 651.777 997.84 654.19 998.569 C 659.015 998.569 663.038 997.11 666.257 994.923 C 671.886 991.277 675.105 985.445 675.105 978.881 L 675.105 611.396 C 677.518 600.459 668.67 592.437 656.603 591.708 Z M 80.65 952.634 L 80.65 631.082 L 103.977 631.082 L 103.977 890.657 C 103.977 901.593 113.631 910.343 125.696 910.343 C 126.5 910.343 127.305 910.343 128.914 910.343 C 129.719 910.343 223.833 898.677 291.404 940.966 C 207.745 927.114 123.285 942.425 80.65 952.634 Z M 336.45 922.738 C 303.471 897.22 263.25 879.719 220.616 873.886 C 200.508 870.969 181.201 868.782 161.09 868.782 C 156.264 868.782 151.437 868.782 147.416 868.782 L 147.416 567.647 L 147.416 567.647 C 188.441 566.19 288.989 569.835 336.45 642.749 L 336.45 922.738 Z M 379.889 643.478 C 427.348 570.563 527.898 566.19 568.924 568.377 L 568.924 869.51 C 543.987 868.782 519.855 870.239 495.723 873.886 C 453.089 879.719 412.869 897.22 379.889 922.738 L 379.889 643.478 Z M 424.935 940.237 C 493.311 897.947 586.619 909.613 587.424 909.613 C 599.49 911.072 609.948 903.781 611.556 892.844 C 611.556 892.114 611.556 890.657 611.556 889.927 L 611.556 630.353 L 634.884 630.353 L 634.884 951.904 C 592.251 942.425 508.592 927.114 424.935 940.237 L 424.935 940.237 Z" style=""/>
</svg>