<?xml version="1.0" encoding="utf-8"?>
<svg version="1.1" id="Layer_8" x="0px" y="0px" viewBox="0 0 768 1024" style="enable-background:new 0 0 768 1024;" xmlns="http://www.w3.org/2000/svg">
  <style type="text/css">
	.st0{fill:#646565;}
</style>
  <path class="st0" d="M 491.872 798.365 L 266.446 798.365 C 211.611 798.365 167.61 842.349 167.61 897.159 L 167.61 1005.428 L 590.709 1005.428 L 590.709 897.159 C 590.033 843.025 546.029 798.365 491.872 798.365 Z" style=""/>
  <path class="st0" d="M 275.923 629.196 C 256.29 686.034 286.752 748.29 343.619 767.915 C 400.484 787.538 462.763 757.087 482.395 700.244 C 490.519 677.238 490.519 652.202 482.395 629.196 C 513.535 621.75 532.49 589.948 525.043 558.818 C 517.597 527.692 485.779 508.745 454.642 516.188 C 432.977 521.601 416.73 538.518 411.992 560.173 C 390.328 553.405 367.311 553.405 345.65 560.173 C 338.879 529.044 307.738 509.42 276.599 516.188 C 245.459 522.955 225.827 554.083 232.597 585.211 C 237.335 607.541 254.261 624.459 275.923 629.196 L 275.923 629.196 Z" style=""/>
</svg>