<?xml version="1.0" encoding="utf-8"?>
<svg id="Layer_2" data-name="Layer 2" viewBox="0 0 768 1024" xmlns="http://www.w3.org/2000/svg">
  <defs>
    <style>.cls-1{fill:#fff7dd;}.cls-2{fill:#323e48;opacity:0.07;}</style>
  </defs>
  <path class="cls-2" d="M 523.659 491.418 C 592.507 527.882 644.641 593.786 667.834 673.66 C 691.765 754.381 685.383 841.342 649.941 918.511 C 634.177 953.251 612.994 984.702 587.352 1011.447 L 664.005 1011.447 C 678.347 991.02 690.871 969.135 701.41 946.09 C 743.799 853.424 751.333 749.185 722.814 652.51 C 694.975 556.764 632.461 477.77 549.923 434.053 C 467.036 389.897 363.948 387.826 275.393 422.186 C 235.089 435.516 191.685 431.742 153.801 411.612 C 113.328 390.1 82.674 351.332 68.998 304.36 C 54.979 256.743 58.759 204.977 79.504 160.408 C 100.008 115.293 135.733 80.705 179.104 63.975 C 194.279 58.089 202.489 40.103 197.685 23.264 C 192.833 6.677 176.323 -2.109 161.432 3.971 C 103.333 26.313 55.496 72.661 28.132 133.125 C 0.381 192.787 -4.649 262.082 14.141 325.806 C 32.432 388.59 73.437 440.39 127.561 469.085 C 182.058 497.984 244.879 501.579 301.828 479.068 C 382.431 450.222 457.855 456.304 523.659 491.418 Z" style=""/>
</svg>