<?xml version="1.0" encoding="utf-8"?>
<svg id="Layer_2" data-name="Layer 2" viewBox="0 0 768 1024" xmlns="http://www.w3.org/2000/svg">
  <defs>
    <style>.cls-1{opacity:0.29;}.cls-2{fill:#323e48;}</style>
  </defs>
  <g class="cls-1" style="" transform="matrix(1.762657, 0, 0, 1.882007, -307.247955, -925.927795)">
    <path class="cls-2" d="M340.55,800.73H340L197.26,786.07a5.8,5.8,0,0,1-4.93-6.45,5.6,5.6,0,0,1,5.88-5.31h.12L341.06,789a5.76,5.76,0,0,1,4.93,6.41,5.64,5.64,0,0,1-5.44,5.31Z"/>
    <path class="cls-2" d="M198.77,844.83a5.54,5.54,0,0,1-5.34-4.71,5.83,5.83,0,0,1,4.32-6.92l140.71-29.69a5.5,5.5,0,0,1,6.39,4.43,1.85,1.85,0,0,1,0,.23A5.82,5.82,0,0,1,340.6,815L199.84,844.75a4.78,4.78,0,0,1-1.07.08Z"/>
    <path class="cls-2" d="M428.92,800.73a5.63,5.63,0,0,1-5.42-5.31,5.75,5.75,0,0,1,4.91-6.41l142.77-14.69a5.58,5.58,0,0,1,6,5.14s0,.11,0,.16a5.83,5.83,0,0,1-4.94,6.45L429.45,800.73Z"/>
    <path class="cls-2" d="M570.7,844.83a5.35,5.35,0,0,1-1.06-.08L428.91,815a5.87,5.87,0,0,1-4.33-6.87,5.51,5.51,0,0,1,6.22-4.69l.18,0L571.73,833.2a5.88,5.88,0,0,1,4.34,6.92A5.58,5.58,0,0,1,570.7,844.83Z"/>
    <ellipse class="cls-2" cx="319.49" cy="704.32" rx="28.17" ry="30.34"/>
    <ellipse class="cls-2" cx="449.99" cy="704.32" rx="28.17" ry="30.34"/>
  </g>
</svg>