<?xml version="1.0" encoding="utf-8"?>
<svg version="1.1" id="Layer_1" x="0px" y="0px" viewBox="0 0 768 1024" style="enable-background:new 0 0 768 1024;" xmlns="http://www.w3.org/2000/svg">
  <style type="text/css">
	.st0{fill:#FF671D;}
	.st1{fill:none;stroke:#646565;stroke-width:3;stroke-miterlimit:10;}
	.st2{clip-path:url(#SVGID_2_);}
	.st3{opacity:0.65;}
	.st4{fill:none;stroke:#FFFFFF;stroke-width:3;stroke-miterlimit:10;}
	.st5{fill:none;}
	.st6{fill:#646565;}
</style>
  <g transform="matrix(4.833227, 0, 0, 4.692832, -424.500885, -1520.152222)" style="">
    <g id="Layer_4">
      <path class="st0" d="M230.4,358.6c-9.9-9.9-49.9,0.4-63.6,14c-13.7-13.7-53.3-24.2-63.6-14c-9.9,9.9,0.4,49.9,14,63.6 c-13.7,13.7-24.2,53.4-14,63.6c9.9,9.9,49.9-0.4,63.6-14c13.7,13.7,53.4,24.2,63.6,14c9.9-9.9-0.4-49.9-14-63.6 C230.1,408.5,240.6,368.8,230.4,358.6z"/>
      <path class="st1" d="M230.4,358.6c-9.9-9.9-49.9,0.4-63.6,14c-13.7-13.7-53.3-24.2-63.6-14c-9.9,9.9,0.4,49.9,14,63.6 c-13.7,13.7-24.2,53.4-14,63.6c9.9,9.9,49.9-0.4,63.6-14c13.7,13.7,53.4,24.2,63.6,14c9.9-9.9-0.4-49.9-14-63.6 C230.1,408.5,240.6,368.8,230.4,358.6z"/>
      <g>
        <defs>
          <path id="SVGID_1_" d="M230.4,358.6c-9.9-9.9-49.9,0.4-63.6,14c-13.7-13.7-53.3-24.2-63.6-14c-9.9,9.9,0.4,49.9,14,63.6 c-13.7,13.7-24.2,53.4-14,63.6c9.9,9.9,49.9-0.4,63.6-14c13.7,13.7,53.4,24.2,63.6,14c9.9-9.9-0.4-49.9-14-63.6 C230.1,408.5,240.6,368.8,230.4,358.6z"/>
        </defs>
        <clipPath id="SVGID_2_">
          <path d="M230.4,358.6c-9.9-9.9-49.9,0.4-63.6,14c-13.7-13.7-53.3-24.2-63.6-14c-9.9,9.9,0.4,49.9,14,63.6 c-13.7,13.7-24.2,53.4-14,63.6c9.9,9.9,49.9-0.4,63.6-14c13.7,13.7,53.4,24.2,63.6,14c9.9-9.9-0.4-49.9-14-63.6 C230.1,408.5,240.6,368.8,230.4,358.6z" transform="matrix(1, 0, 0, 1, 0, 0)" style="overflow: visible;"/>
        </clipPath>
        <g class="st2">
          <g class="st3">
            <line class="st4" x1="3.2" y1="462.8" x2="177" y2="288.9"/>
            <line class="st4" x1="8.6" y1="468.2" x2="182.4" y2="294.3"/>
            <line class="st4" x1="14" y1="473.6" x2="187.8" y2="299.8"/>
            <line class="st4" x1="19.4" y1="479" x2="193.2" y2="305.2"/>
            <line class="st4" x1="24.8" y1="484.5" x2="198.7" y2="310.6"/>
            <line class="st4" x1="30.2" y1="489.9" x2="204.1" y2="316"/>
            <line class="st4" x1="35.6" y1="495.3" x2="209.5" y2="321.4"/>
            <line class="st4" x1="41.1" y1="500.7" x2="214.9" y2="326.8"/>
            <line class="st4" x1="46.5" y1="506.1" x2="220.3" y2="332.2"/>
            <line class="st4" x1="51.9" y1="511.5" x2="225.8" y2="337.7"/>
            <line class="st4" x1="57.3" y1="516.9" x2="231.2" y2="343.1"/>
            <line class="st4" x1="62.7" y1="522.4" x2="236.6" y2="348.5"/>
            <line class="st4" x1="68.1" y1="527.8" x2="242" y2="353.9"/>
            <line class="st4" x1="73.6" y1="533.2" x2="247.4" y2="359.3"/>
            <line class="st4" x1="79" y1="538.6" x2="252.8" y2="364.8"/>
            <line class="st4" x1="84.4" y1="544" x2="258.2" y2="370.2"/>
            <line class="st4" x1="89.8" y1="549.4" x2="263.7" y2="375.6"/>
            <line class="st4" x1="95.2" y1="554.9" x2="269.1" y2="381"/>
            <line class="st4" x1="100.6" y1="560.3" x2="274.5" y2="386.4"/>
            <line class="st4" x1="106.1" y1="565.7" x2="279.9" y2="391.8"/>
            <line class="st4" x1="111.1" y1="570.7" x2="285" y2="396.9"/>
            <line class="st4" x1="116.5" y1="576.2" x2="290.4" y2="402.3"/>
            <line class="st4" x1="121.9" y1="581.6" x2="295.8" y2="407.7"/>
            <line class="st4" x1="127.4" y1="587" x2="301.2" y2="413.1"/>
          </g>
          <path class="st5" d="M230.4,358.6c-9.9-9.9-49.9,0.4-63.6,14c-13.7-13.7-53.3-24.2-63.6-14c-9.9,9.9,0.4,49.9,14,63.6 c-13.7,13.7-24.2,53.4-14,63.6c9.9,9.9,49.9-0.4,63.6-14c13.7,13.7,53.4,24.2,63.6,14c9.9-9.9-0.4-49.9-14-63.6 C230.1,408.5,240.6,368.8,230.4,358.6z"/>
        </g>
      </g>
      <path class="st1" d="M230.4,358.6c-9.9-9.9-49.9,0.4-63.6,14c-13.7-13.7-53.3-24.2-63.6-14c-9.9,9.9,0.4,49.9,14,63.6 c-13.7,13.7-24.2,53.4-14,63.6c9.9,9.9,49.9-0.4,63.6-14c13.7,13.7,53.4,24.2,63.6,14c9.9-9.9-0.4-49.9-14-63.6 C230.1,408.5,240.6,368.8,230.4,358.6z"/>
      <path class="st6" d="M148.9,438.9h-0.2l-57.9-5.9c-1.3-0.2-2.1-1.4-2-2.6c0.1-1.3,1.1-2.2,2.4-2.2c0,0,0,0,0,0l57.9,6 c1.3,0.2,2.2,1.3,2,2.6C151.1,437.9,150.1,438.9,148.9,438.9L148.9,438.9z"/>
      <path class="st6" d="M91.4,456.8c-1.1,0-2-0.8-2.2-1.9c-0.3-1.3,0.5-2.5,1.8-2.8l57.1-12.1c1.2-0.2,2.4,0.6,2.6,1.8 c0,0,0,0.1,0,0.1c0.3,1.2-0.5,2.5-1.7,2.8l-57.1,12.1C91.7,456.8,91.6,456.8,91.4,456.8L91.4,456.8z"/>
      <path class="st6" d="M184.8,438.9c-1.2,0-2.1-1-2.2-2.1c-0.2-1.3,0.7-2.4,2-2.6l57.9-6c1.2-0.1,2.3,0.8,2.4,2.1c0,0,0,0,0,0.1 c0.1,1.3-0.7,2.4-2,2.6l-57.9,6H184.8z"/>
      <path class="st6" d="M242.3,456.8c-0.1,0-0.3,0-0.4,0l-57.1-12.1c-1.3-0.3-2.1-1.5-1.8-2.8c0.2-1.2,1.3-2.1,2.5-1.9c0,0,0,0,0.1,0 l57.1,12c1.2,0.3,2,1.6,1.8,2.8C244.3,455.9,243.4,456.8,242.3,456.8L242.3,456.8z"/>
      <ellipse class="st6" cx="140.4" cy="399.8" rx="11.4" ry="12.3"/>
      <ellipse class="st6" cx="193.3" cy="399.8" rx="11.4" ry="12.3"/>
    </g>
  </g>
</svg>