<svg id="Screen_D" data-name="Screen D" xmlns="http://www.w3.org/2000/svg" viewBox="0 0 768 1024">
  <defs>
    <style>.cls-1{fill:#fdd400;}.cls-2{fill:#323e48;}.cls-3{fill:#ff671d;}.cls-4,.cls-5{fill:none;stroke:#fff;stroke-linecap:round;stroke-miterlimit:10;stroke-width:2.89px;}.cls-5{stroke-dasharray:15.35 15.35;}</style>
  </defs>
  <rect class="cls-1" x="1.14" y="137.56" width="1000" height="80" />
  <path class="cls-2" d="M544.22,186.11a1.81,1.81,0,0,1-.29,1,1.87,1.87,0,0,1-2.58.6A18.94,18.94,0,0,0,512.82,208a19,19,0,0,0,8.41,11.8h0A14.89,14.89,0,1,1,505.41,245a1.88,1.88,0,0,1,2-3.19,11.13,11.13,0,0,0,12.32-18.53h0a24,24,0,0,1-10.58-14.47,22.71,22.71,0,0,1,34.19-24.32,1.88,1.88,0,0,1,.88,1.6Z" />
  <path class="cls-3" d="M540,186.71a64.45,64.45,0,0,0,64.43,64.42c35.55,0,101-37.85,101-64.42,0-25.85-65.4-64.42-101-64.42A64.45,64.45,0,0,0,540,186.71Z" />
  <path class="cls-2" d="M628,203.45a32.8,32.8,0,0,0-4-.25,31.46,31.46,0,1,0,31.4,33.4" />
  <path class="cls-3" d="M634.4,198.61a29,29,0,0,0-3.75-.23,29.65,29.65,0,1,0,29.6,31.47" />
  <path class="cls-2" d="M628,170.6a30.9,30.9,0,0,1-4,.26,31.46,31.46,0,1,1,31.4-33.4" />
  <path class="cls-3" d="M634.4,175.44a29,29,0,0,1-3.75.24,29.66,29.66,0,1,1,29.6-31.48" />
  <path class="cls-2" d="M679.08,197.88V198l-3.53,37a1.43,1.43,0,0,1-1.56,1.27,1.4,1.4,0,0,1-1.27-1.55l3.53-37a1.42,1.42,0,0,1,2.83.14Z" />
  <path class="cls-2" d="M689.7,234.64a1.41,1.41,0,0,1-2.8.27l-7.15-36.49a1.42,1.42,0,0,1,1.12-1.67,1.4,1.4,0,0,1,1.65,1.11l7.16,36.51a1.23,1.23,0,0,1,0,.27Z" />
  <path class="cls-2" d="M679.08,175a1.42,1.42,0,0,1-2.83.13l-3.53-37a1.41,1.41,0,0,1,1.27-1.54,1.43,1.43,0,0,1,1.56,1.28l3.53,37V175Z" />
  <path class="cls-2" d="M689.7,138.19a1.23,1.23,0,0,1,0,.27L682.52,175a1.41,1.41,0,1,1-2.77-.53l7.15-36.51a1.41,1.41,0,0,1,2.8.27Z" />
  <circle class="cls-2" cx="656.09" cy="203.64" r="7.3" />
  <circle class="cls-2" cx="656.09" cy="173.34" r="7.3" />
  <line class="cls-4" x1="63.57" y1="179.93" x2="71.35" y2="179.93" />
  <line class="cls-5" x1="86.69" y1="179.93" x2="478.06" y2="179.93" />
  <line class="cls-4" x1="485.74" y1="179.93" x2="493.52" y2="179.93" />
</svg>