<?xml version="1.0" encoding="utf-8"?>
<svg viewBox="0 0 768 1024" xmlns="http://www.w3.org/2000/svg">
  <defs>
    <style>.cls-1{isolation:isolate;}.cls-2{opacity:0.67;mix-blend-mode:multiply;}.cls-3{fill:#fdd400;}.cls-4{fill:none;stroke:#646565;stroke-miterlimit:10;stroke-width:3.02px;}.cls-5{fill:#646565;}</style>
  </defs>
  <g class="cls-1" style="" transform="matrix(4.730734, 0, 0, 4.693919, -1456.245239, -1495.319336)">
    <g id="Layer_4" data-name="Layer 4">
      <path class="cls-3" d="M450.53,358.56c-9.93-9.94-49.89.37-63.56,14-13.66-13.67-53.34-24.25-63.56-14-9.93,9.93.38,49.89,14,63.56-13.66,13.66-24.25,53.35-14,63.56,9.94,9.93,49.9-.38,63.56-14,13.67,13.66,53.35,24.25,63.57,14,9.93-9.94-.38-49.9-14.05-63.56C450.16,408.45,460.75,368.77,450.53,358.56ZM387,422.12Z"/>
      <path class="cls-4" d="M450.53,358.56c-9.93-9.94-49.89.37-63.56,14-13.66-13.67-53.34-24.25-63.56-14-9.93,9.93.38,49.89,14,63.56-13.66,13.66-24.25,53.35-14,63.56,9.94,9.93,49.9-.38,63.56-14,13.67,13.66,53.35,24.25,63.57,14,9.93-9.94-.38-49.9-14.05-63.56C450.16,408.45,460.75,368.77,450.53,358.56ZM387,422.12Z"/>
      <path class="cls-5" d="M369,438.88h-.21l-57.93-5.94a2.37,2.37,0,0,1-2-2.62,2.27,2.27,0,0,1,2.43-2.15l57.92,6a2.34,2.34,0,0,1,2,2.6,2.29,2.29,0,0,1-2.21,2.15Z"/>
      <path class="cls-5" d="M311.51,456.78a2.25,2.25,0,0,1-2.17-1.91,2.37,2.37,0,0,1,1.76-2.81L368.2,440a2.22,2.22,0,0,1,2.6,1.89,2.35,2.35,0,0,1-1.73,2.79L312,456.75a2.22,2.22,0,0,1-.44,0Z"/>
      <path class="cls-5" d="M404.9,438.88a2.28,2.28,0,0,1-2.2-2.15,2.34,2.34,0,0,1,2-2.6l57.94-6a2.27,2.27,0,0,1,2.42,2.15,2.37,2.37,0,0,1-2,2.62l-57.93,5.94Z"/>
      <path class="cls-5" d="M462.43,456.78a2.17,2.17,0,0,1-.43,0l-57.1-12.06a2.38,2.38,0,0,1-1.76-2.79,2.24,2.24,0,0,1,2.6-1.89l57.11,12.05a2.38,2.38,0,0,1,1.76,2.81,2.26,2.26,0,0,1-2.18,1.91Z"/>
      <ellipse class="cls-5" cx="360.5" cy="399.76" rx="11.43" ry="12.31"/>
      <ellipse class="cls-5" cx="413.45" cy="399.76" rx="11.43" ry="12.31"/>
    </g>
  </g>
</svg>