<svg id="Screen_A" data-name="Screen A" xmlns="http://www.w3.org/2000/svg" viewBox="0 0 768 1024">
  <defs>
    <style>.cls-1{fill:#3fa5d2;stroke:#fdd400;stroke-width:15.45px;}.cls-1,.cls-5{stroke-miterlimit:10;}.cls-2,.cls-4{fill:#323e48;}.cls-3,.cls-5,.cls-6{fill:#ff671d;}.cls-4,.cls-5,.cls-6{stroke:#323e48;stroke-width:1.67px;}</style>
  </defs>
  <path class="cls-1" d="M702.14,731.16a121.09,121.09,0,0,0-242.18,0c0,3.72-.48,11-.48,11V889.29H702.63V742.17S702.14,734.88,702.14,731.16Z" />
  <path class="cls-2" d="M639.22,853.25a2.47,2.47,0,0,0-.13,1.38,2.53,2.53,0,0,0,2.94,2,25.48,25.48,0,0,1,25.66,39.46,25.6,25.6,0,0,1-16.35,10.6h0a20,20,0,0,0,7.33,39.38,2.53,2.53,0,0,0-.93-5,15,15,0,0,1-6.26-29.26h0A32.16,32.16,0,0,0,671.86,899a30.52,30.52,0,0,0-30.75-47.29,2.52,2.52,0,0,0-1.89,1.56Z" />
  <path class="cls-3" d="M661.58,894.21v-10h0c-.61-44-36.75-79.57-81.28-79.57S499.6,840.2,499,884.25h0v10Z" />
  <path class="cls-3" d="M580.13,790.62c-36.09,0-65.37,18.88-65.37,42.14s38.41,66,65.37,66c26.23,0,65.37-42.77,65.37-66S616.21,790.62,580.13,790.62Z" />
  <path class="cls-2" d="M565.44,870.3h-.16l-45.12-4.64a1.82,1.82,0,0,1-1.56-2,1.77,1.77,0,0,1,1.89-1.68l45.12,4.64a1.82,1.82,0,0,1,1.55,2,1.78,1.78,0,0,1-1.72,1.68Z" />
  <path class="cls-2" d="M520.63,884.23a1.75,1.75,0,0,1-1.69-1.48,1.86,1.86,0,0,1,1.37-2.19l44.48-9.39a1.75,1.75,0,0,1,2,1.48,1.84,1.84,0,0,1-1.36,2.17L521,884.21a1.94,1.94,0,0,1-.34,0Z" />
  <path class="cls-2" d="M593.38,870.3a1.79,1.79,0,0,1-1.72-1.68,1.83,1.83,0,0,1,1.55-2L638.34,862a1.77,1.77,0,0,1,1.89,1.68,1.83,1.83,0,0,1-1.57,2l-45.12,4.64Z" />
  <path class="cls-2" d="M638.19,884.23a2,2,0,0,1-.34,0l-44.48-9.39a1.84,1.84,0,0,1-1.36-2.17,1.74,1.74,0,0,1,2-1.48l44.48,9.39a1.87,1.87,0,0,1,1.38,2.19,1.76,1.76,0,0,1-1.7,1.48Z" />
  <ellipse class="cls-2" cx="561.03" cy="850.27" rx="7.31" ry="7.87" />
  <ellipse class="cls-2" cx="594.9" cy="850.27" rx="7.31" ry="7.87" />
  <path class="cls-4" d="M563.61,819.18a31,31,0,0,0,.25-4,31.64,31.64,0,1,0-33.59,31.59" />
  <path class="cls-5" d="M568.48,825.62a31.15,31.15,0,0,0,.23-3.77,29.82,29.82,0,1,0-31.65,29.78" />
  <path class="cls-4" d="M596.65,819.18a31,31,0,0,1-.26-4A31.65,31.65,0,1,1,630,846.78" />
  <path class="cls-6" d="M591.78,825.62a29.24,29.24,0,0,1-.24-3.77,29.83,29.83,0,1,1,31.66,29.78" />
  <path class="cls-2" d="M558.5,905.44h0a16.35,16.35,0,0,0-32.7.62h0l0,2,9.66-.18-.18-9.48,3.84-.07.18,9.47,5.71-.11-.18-9.47,3.84-.07.18,9.47,9.66-.18Z" />
  <path class="cls-2" d="M634.93,905.44h0a16.35,16.35,0,0,0-32.7.62h0l0,2,9.67-.18-.18-9.48,3.84-.07.17,9.47,5.72-.11-.18-9.47,3.83-.07.18,9.47,9.67-.18Z" />
</svg>