<svg id="PageC" xmlns="http://www.w3.org/2000/svg" viewBox="0 0 768 1024"><defs><style>.cls-1{fill:#fdd400;}.cls-2{fill:#fff;opacity:0.85;}.cls-3{fill:#323e48;}.cls-4{fill:#ff671d;}</style></defs><circle class="cls-1" cx="384.09" cy="405.01" r="195.96"/><path class="cls-2" d="M557.58,405A173.49,173.49,0,1,1,384.09,231.52,173.48,173.48,0,0,1,557.58,405Z"/><path class="cls-3" d="M385.05,328.32a1.91,1.91,0,0,1-1-.31,2,2,0,0,1-.62-2.7,19.79,19.79,0,0,0-21.19-29.79,19.87,19.87,0,0,0-12.32,8.79h0a15.55,15.55,0,1,1-26.35-16.53,2,2,0,1,1,3.32,2.09,11.63,11.63,0,0,0,19.36,12.87h0a25,25,0,0,1,15.11-11.05,23.7,23.7,0,0,1,25.39,35.7,1.94,1.94,0,0,1-1.66.93Z"/><path class="cls-4" d="M384.42,323.91a67.3,67.3,0,0,0-67.28,67.28c0,37.14,39.53,105.44,67.28,105.44,27,0,67.29-68.3,67.29-105.44A67.31,67.31,0,0,0,384.42,323.91Z"/><path class="cls-3" d="M366.94,415.81a33.51,33.51,0,0,0,.26-4.15,32.86,32.86,0,1,0-34.88,32.81"/><path class="cls-4" d="M372,422.49a31.46,31.46,0,0,0,.24-3.91,31,31,0,1,0-32.87,30.92"/><path class="cls-3" d="M401.24,415.81a33.51,33.51,0,0,1-.26-4.15,32.86,32.86,0,1,1,34.88,32.81"/><path class="cls-4" d="M396.19,422.49a29.63,29.63,0,0,1-.25-3.91,31,31,0,1,1,32.88,30.92"/><path class="cls-3" d="M372.76,469.16h-.14L334,465.47a1.48,1.48,0,1,1,.29-3l38.66,3.69a1.48,1.48,0,0,1-.14,3Z"/><path class="cls-3" d="M334.36,480.25a1.47,1.47,0,0,1-.28-2.92l38.11-7.47a1.48,1.48,0,0,1,.59,2.9l-38.13,7.47a1.46,1.46,0,0,1-.29,0Z"/><path class="cls-3" d="M396.7,469.16a1.48,1.48,0,0,1-.14-3l38.67-3.69a1.48,1.48,0,1,1,.27,3l-38.66,3.69Z"/><path class="cls-3" d="M435.1,480.25a1.46,1.46,0,0,1-.29,0l-38.12-7.47a1.48,1.48,0,0,1,.56-2.9l38.13,7.47a1.47,1.47,0,0,1-.28,2.92Z"/><circle class="cls-3" cx="366.73" cy="445.16" r="7.62"/><circle class="cls-3" cx="398.39" cy="445.16" r="7.62"/></svg>